<svg xmlns="http://www.w3.org/2000/svg" version="1.1" xmlns:xlink="http://www.w3.org/1999/xlink" xmlns:svgjs="http://svgjs.dev/svgjs" width="1500" height="1500" viewBox="0 0 1500 1500"><g transform="matrix(1,0,0,1,-0.21332335329316265,-0.21332335329350371)"><svg viewBox="0 0 334 334" data-background-color="#efefef" preserveAspectRatio="xMidYMid meet" height="1500" width="1500" xmlns="http://www.w3.org/2000/svg" xmlns:xlink="http://www.w3.org/1999/xlink"><g id="tight-bounds" transform="matrix(1,0,0,1,0.04749999999998522,0.04750000000001364)"><svg viewBox="0 0 333.90454557049503 333.90454557049503" height="333.90454557049503" width="333.90454557049503"><g><svg></svg></g><g><svg viewBox="0 0 333.90454557049503 333.90454557049503" height="333.90454557049503" width="333.90454557049503"><g><path d="M0 166.952c0-92.205 74.747-166.952 166.952-166.952 92.205 0 166.952 74.747 166.953 166.952 0 92.205-74.747 166.952-166.953 166.953-92.205 0-166.952-74.747-166.952-166.953zM166.952 316.63c82.665 0 149.677-67.013 149.678-149.678 0-82.665-67.013-149.677-149.678-149.677-82.665 0-149.677 67.013-149.677 149.677 0 82.665 67.013 149.677 149.677 149.678z" data-fill-palette-color="tertiary" fill="#ff4136" stroke="transparent"></path><ellipse rx="160.27418187383762" ry="160.27418187383762" cx="166.95227278524752" cy="166.95227278524752" fill="#ff4136" stroke="transparent" stroke-width="0" fill-opacity="1" data-fill-palette-color="tertiary"></ellipse></g><g transform="matrix(1,0,0,1,80.21722006242483,71.17305217166896)"><svg viewBox="0 0 173.47010544564537 191.55844122715712" height="191.55844122715712" width="173.47010544564537"><g><svg viewBox="0 0 173.47010544564537 191.55844122715712" height="191.55844122715712" width="173.47010544564537"><g><svg viewBox="0 0 173.47010544564537 191.55844122715712" height="191.55844122715712" width="173.47010544564537"><g><svg viewBox="0 0 173.47010544564537 191.55844122715712" height="191.55844122715712" width="173.47010544564537"><g id="textblocktransform"><svg viewBox="0 0 173.47010544564537 191.55844122715712" height="191.55844122715712" width="173.47010544564537" id="textblock"><g><svg viewBox="0 0 173.47010544564537 191.55844122715712" height="191.55844122715712" width="173.47010544564537"><g transform="matrix(1,0,0,1,0,0)"><svg width="173.47010544564537" viewBox="2 -31.95 29.25 32.3" height="191.55844122715712" data-palette-color="#efefef"><path d="M18.2 0.35L18.2 0.35Q13.5 0.35 9.83-1.48 6.15-3.3 4.08-6.95 2-10.6 2-16L2-16Q2-23.3 6.03-27.63 10.05-31.95 17.9-31.95L17.9-31.95Q22.05-31.95 25.08-30.85 28.1-29.75 30.1-28.2L30.1-28.2 27.55-22.4Q26-23.4 23.78-24.08 21.55-24.75 19.35-24.75L19.35-24.75Q15.35-24.75 13.18-22.33 11-19.9 11-15.9L11-15.9Q11-12.75 12.2-10.78 13.4-8.8 15.35-7.88 17.3-6.95 19.5-6.95L19.5-6.95Q20.65-6.95 21.5-7.13 22.35-7.3 22.75-7.5L22.75-7.5 22.75-12.3 17.35-12.3 17.35-18.7 31.25-18.7 31.25-4.6Q29.4-2.4 25.95-1.03 22.5 0.35 18.2 0.35Z" opacity="1" transform="matrix(1,0,0,1,0,0)" fill="#efefef" class="wordmark-text-0" data-fill-palette-color="quaternary" id="text-0"></path></svg></g></svg></g></svg></g></svg></g><g></g></svg></g></svg></g></svg></g></svg></g><defs></defs></svg><rect width="333.90454557049503" height="333.90454557049503" fill="none" stroke="none" visibility="hidden"></rect></g></svg></g></svg>